<svg id="Layer_1" data-name="Layer 1" xmlns="http://www.w3.org/2000/svg" viewBox="0 0 256.57 56.38"><defs><style>.cls-1{fill:#00ebc7;}.cls-2{fill:#875bde;}</style></defs><title>ehi logo 1</title><path class="cls-1" d="M244,219.47a7.46,7.46,0,0,1,7.47-7.47H295l-10.88,14.94H251.47A7.47,7.47,0,0,1,244,219.47Z" transform="translate(-244 -212)"/><path class="cls-1" d="M275.37,253.4h12.16a7.47,7.47,0,1,1,0,14.93h-23Z" transform="translate(-244 -212)"/><path class="cls-1" d="M244,240.38a7.47,7.47,0,0,1,7.47-7.47h28.59l-10.88,14.94H251.47A7.46,7.46,0,0,1,244,240.38Z" transform="translate(-244 -212)"/><circle class="cls-1" cx="7.47" cy="48.87" r="7.47"/><path class="cls-2" d="M323.5,246.66V268h23.75v-5.12H329.9v-3.39h16.36v-4.71H329.9v-3.1h17.22v-5Zm25.08,16.51a4.51,4.51,0,0,0,1.35,3.65c1.34,1.21,3.23,1.56,8.73,1.56,4.38,0,7.14-.28,8.48-.92,1.6-.71,2.34-2.12,2.34-4.39,0-3.36-1.67-4.67-6.05-4.7-5.86,0-6.79-.07-7.71-.13s-1.38-.38-1.38-1c0-1,1.09-1.25,4.64-1.25a8.53,8.53,0,0,1,3.55.45c.19.09.26.25.39.7h5.76c-.13-1.82-.42-2.62-1.22-3.26-1.28-1.09-3.17-1.41-8.32-1.41-4.13,0-6.75.26-8,.77-1.66.67-2.46,2.08-2.46,4.35,0,3.23,1.79,4.58,6.08,4.64,5.53,0,7,0,7.74.1s1.31.51,1.31,1.12c0,1.08-1.09,1.4-4.73,1.4s-4.64-.38-4.74-1.69Zm37.29,0c-.23,1.34-.93,1.6-4.52,1.6-2,0-3.26-.19-3.84-.64s-.7-.93-.7-2.47h14.78c0-.64,0-1.34,0-1.53,0-3.55-.55-5.28-2-6.37s-3.17-1.31-8.13-1.31-6.82.32-8.29,1.34-2.05,2.66-2.05,6.69c0,3.84.45,5.38,1.93,6.5s3.45,1.4,7.83,1.4c8.1,0,10.18-1,10.6-5.21Zm-9.06-4.61c.06-2.11,1-2.59,4.77-2.59,2.21,0,3.39.22,3.9.77.35.35.42.64.45,1.82Zm16.87-5.7v3.84h9.06L393,264.1V268h18.4v-3.94h-9.66l9.34-6.88v-4.32Zm29.87-.38c-5.12,0-7.36.35-8.76,1.38s-2,2.56-2,6.08c0,4.38.35,5.79,1.76,6.94s3.4,1.5,9,1.5,7.48-.32,8.92-1.5,1.76-2.59,1.76-6.72c0-3.78-.45-5.18-1.95-6.3S428.67,252.48,423.55,252.48Zm0,4.26a10.21,10.21,0,0,1,3.71.48c1,.41,1.31,1.18,1.31,3.16,0,3.2-.74,3.75-5,3.75a9.92,9.92,0,0,1-3.88-.51c-1-.42-1.21-1.12-1.21-3.08C418.5,257.31,419.3,256.74,423.59,256.74Zm12.78-10.08V268h5.35v-2H442c1.12,1.85,2.56,2.36,6.78,2.36,3.87,0,6-.48,7.26-1.56s1.67-2.69,1.67-6.44-.45-5.4-1.92-6.52c-1.31-1-3.46-1.41-7.17-1.41s-5.18.54-6.34,2.43H442v-8.22Zm10.69,10a11.61,11.61,0,0,1,3.71.45c1,.42,1.28,1.15,1.28,3.14s-.25,2.75-.92,3.2a8.31,8.31,0,0,1-3.94.64c-2.21,0-3.68-.26-4.35-.74s-.8-1.18-.8-3C442,257.28,442.84,256.7,447.06,256.7Zm23.12-4.22c-5.12,0-7.36.35-8.77,1.38s-2,2.56-2,6.08c0,4.38.35,5.79,1.76,6.94s3.39,1.5,9,1.5,7.49-.32,8.93-1.5,1.76-2.59,1.76-6.72c0-3.78-.45-5.18-1.95-6.3S475.3,252.48,470.18,252.48Zm0,4.26a10.21,10.21,0,0,1,3.71.48c1,.41,1.31,1.18,1.31,3.16,0,3.2-.73,3.75-5,3.75a9.83,9.83,0,0,1-3.87-.51c-1-.42-1.22-1.12-1.22-3.08C465.12,257.31,465.92,256.74,470.21,256.74ZM483,252.86V268h5.66v-6.27c0-2.34.16-3.17.71-3.91a3.65,3.65,0,0,1,2.84-1.08,3.52,3.52,0,0,1,2.5.7,2.74,2.74,0,0,1,.51,2v.16h5.35v-1c0-4.54-1.57-6.08-6.11-6.08-3.17,0-4.77.74-5.83,2.66h-.29v-2.28Z" transform="translate(-244 -212)"/><path class="cls-2" d="M323.5,213.66V235h23.75v-5.12H329.9v-3.39h16.36v-4.71H329.9v-3.1h17.22v-5Zm25.56,0V235h5.66v-6.46c0-4,.81-4.84,4.81-4.84,3.71,0,4.38.61,4.38,3.91V235h5.66v-7.39c0-3.55-.35-4.93-1.66-6.27s-3.2-1.89-6.56-1.89c-3.59,0-5.44.8-6.37,2.72h-.26v-8.51Zm23,6.2V235h5.66V219.86Zm0-6.2v4.25h5.66v-4.25Z" transform="translate(-244 -212)"/></svg>